<?xml version="1.0" encoding="utf-8"?>
<!-- Generator: Adobe Illustrator 16.0.0, SVG Export Plug-In . SVG Version: 6.00 Build 0)  -->
<!DOCTYPE svg PUBLIC "-//W3C//DTD SVG 1.1//EN" "http://www.w3.org/Graphics/SVG/1.1/DTD/svg11.dtd">
<svg version="1.1" id="Layer_1" xmlns="http://www.w3.org/2000/svg" xmlns:xlink="http://www.w3.org/1999/xlink" x="0px" y="0px"
	 width="550px" height="270px" viewBox="0 0 550 270" enable-background="new 0 0 550 270" xml:space="preserve">
<circle fill="#3F65AF" cx="114.243" cy="140.634" r="95.277"/>
<circle fill="#669CD3" cx="114.243" cy="140.636" r="73.049"/>
<path fill="#3F65AF" d="M238.896,127.818"/>
<g>
	<polyline fill="none" stroke="#FFFFFF" stroke-width="10" stroke-miterlimit="10" points="114.249,136.131 114.249,169.244 
		87.202,195.8 87.202,73.304 174.882,159.696 136.199,160.557 161.558,195.8 131.042,210.545 121.882,184.329 	"/>
	<circle fill="#3F65AF" stroke="#FFFFFF" stroke-width="6" stroke-miterlimit="10" cx="114.237" cy="168.738" r="7.646"/>
	<circle fill="#3F65AF" stroke="#FFFFFF" stroke-width="6" stroke-miterlimit="10" cx="137.211" cy="161.091" r="7.646"/>
	<circle fill="#FFFFFF" stroke="#3F65AF" stroke-width="6" stroke-miterlimit="10" cx="179.942" cy="161.091" r="7.646"/>
	<circle fill="#FFFFFF" stroke="#3F65AF" stroke-width="6" stroke-miterlimit="10" cx="85.342" cy="68.72" r="7.646"/>
	<circle fill="#FFFFFF" stroke="#3F65AF" stroke-width="6" stroke-miterlimit="10" cx="85.342" cy="202.899" r="7.646"/>
	<circle fill="#FFFFFF" stroke="#3F65AF" stroke-width="6" stroke-miterlimit="10" cx="129.565" cy="215.999" r="7.646"/>
	<circle fill="#FFFFFF" stroke="#3F65AF" stroke-width="6" stroke-miterlimit="10" cx="167.236" cy="197.584" r="7.646"/>
</g>
<text transform="matrix(1 0 0 1 215.1211 175.4609)"><tspan x="0" y="0" fill="#3F65AF" font-family="'CaviarDreams'" font-size="100">Click</tspan><tspan x="215.576" y="0" fill="#669CD3" font-family="'CaviarDreams'" font-size="100">ee</tspan></text>
</svg>
